<svg xmlns="http://www.w3.org/2000/svg" viewBox="0 0 383.19 383.19"><path d="M113.472 297.479h27.124v85.71h-27.124z" fill="#a4a9ad"/><path d="M113.472 374.51h27.124v8.68h-27.124z" fill="#2d3740"/><path d="M102.666 245.36c0-13.458 10.91-24.368 24.368-24.368 13.459 0 24.369 10.91 24.369 24.368v52.162c0 13.46-10.91 24.368-24.369 24.368-13.457 0-24.368-10.908-24.368-24.368V245.36z" fill="#c8c9c9"/><path d="M234.985 297.479h27.123v85.71h-27.123z" fill="#a4a9ad"/><path d="M234.985 374.51h27.123v8.68h-27.123z" fill="#2d3740"/><path d="M224.179 245.36c0-13.458 10.91-24.368 24.368-24.368 13.459 0 24.369 10.91 24.369 24.368v52.162c0 13.46-10.91 24.368-24.369 24.368-13.458 0-24.368-10.908-24.368-24.368V245.36zm-146.01 52.119h27.124v85.71H78.169z" fill="#c8c9c9"/><path d="M78.169 374.51h27.124v8.68H78.169z" fill="#333e48"/><path d="M67.362 245.36c0-13.458 10.911-24.368 24.369-24.368s24.368 10.91 24.368 24.368v52.162c0 13.46-10.91 24.368-24.368 24.368s-24.369-10.908-24.369-24.368V245.36z" fill="#dadbdc"/><path d="M199.682 297.479h27.123v85.71h-27.123z" fill="#c8c9c9"/><path d="M199.682 374.51h27.123v8.68h-27.123z" fill="#333e48"/><path d="M188.875 245.36c0-13.458 10.911-24.368 24.369-24.368s24.368 10.91 24.368 24.368v52.162c0 13.46-10.91 24.368-24.368 24.368s-24.369-10.908-24.369-24.368V245.36z" fill="#dadbdc"/><path d="M300.96 15.706h-26.792c-20.19 0-36.557 16.367-36.557 36.558l.001.042v80.807H91.724a54.834 54.834 0 00-25.505 6.285c-3.617-4.653-9.255-7.66-15.605-7.66-10.92 0-19.773 8.852-19.773 19.774 0 7.102 3.758 13.313 9.383 16.8a54.79 54.79 0 00-3.83 20.133v27.665c0 30.434 24.899 55.332 55.332 55.332h156.621c30.432 0 55.332-24.899 55.332-55.332V88.708c18.922-1.392 33.842-17.17 33.842-36.444-.004-20.191-16.37-36.558-36.561-36.558z" fill="#dadbdc"/><path d="M347.059 52.831h-8.588v15.878h13.199V57.442a4.611 4.611 0 00-4.611-4.611z" fill="#a4a9ad"/><path d="M337.469 51.016c-.25-7.372-2.662-14.193-6.652-19.834h-45.734c0 3.64-1.983 6.811-4.924 8.51a9.79 9.79 0 01.584 3.312 9.796 9.796 0 01-2.938 7.004c10.354 2.985 17.928 12.525 17.928 23.841a24.7 24.7 0 01-5.242 15.246h42.554c10.662 0 19.304-8.643 19.304-19.302-.001-9.141-6.354-16.775-14.88-18.777z" fill="#c8c9c9"/><circle cx="319.199" cy="47.335" r="4.331" fill="#333e48"/><path d="M276.455 29.272a7.316 7.316 0 01-10.342 0 7.316 7.316 0 010-10.344L285.043 0c5.711 5.711 5.712 14.971.001 20.682l-8.589 8.59z" fill="#c8c9c9"/></svg>